<svg xmlns="http://www.w3.org/2000/svg" viewBox="0 0 185.26 66.43"><defs><style>.cls-1{fill:#2b2d7f;}</style></defs><path class="cls-1" d="M71.68,16.48c5.38,0,8,2.08,8,4.91s-2.64,4.91-8,4.91H66.36L59.74,40.18H72.56c5.76,0,8.21,2,8.21,4.81s-2.45,4.82-8.21,4.82H55.1l-8,16.62H70.67c18.47,0,27.66-8,27.66-18.47A18.15,18.15,0,0,0,89.66,32c4.89-3.24,8.08-8,8.08-13.64C97.74,7,87.92,0,72.34,0H48.76l-15,31.4L18.8,0H0L24.16,51.22,17,66.43h18.5L59.38,16.48Z"/><path class="cls-1" d="M104.49,28.32h62.77l-7.32-15.48A24.67,24.67,0,0,0,138.08,0H100.15A25.3,25.3,0,0,1,107,17.32,26.22,26.22,0,0,1,104.49,28.32Z"/><path class="cls-1" d="M105,38.11a24.77,24.77,0,0,1,2.52,11,22.82,22.82,0,0,1-7.39,17.32h85.11L171.89,38.11Z"/></svg>